<?xml version="1.0" standalone="no"?>
<!DOCTYPE svg PUBLIC "-//W3C//DTD SVG 20010904//EN"
 "http://www.w3.org/TR/2001/REC-SVG-20010904/DTD/svg10.dtd">
<svg version="1.0" xmlns="http://www.w3.org/2000/svg"
 width="300.000000pt" height="127.000000pt" viewBox="0 0 300.000000 127.000000"
 preserveAspectRatio="xMidYMid meet">

<g transform="translate(0.000000,127.000000) scale(0.100000,-0.100000)"
fill="#000000" stroke="none">
<path d="M526 1222 c-23 -5 -19 -19 54 -194 111 -262 114 -269 129 -266 14 3
190 408 191 440 0 15 -18 17 -179 20 -98 2 -186 1 -195 0z"/>
<path d="M1090 1222 c-54 -6 -72 -14 -112 -50 -62 -56 -86 -137 -57 -195 6
-12 98 -107 205 -212 127 -124 194 -197 194 -210 0 -29 -12 -43 -43 -50 -26
-7 -40 4 -185 149 -87 86 -163 156 -170 156 -10 0 -12 -39 -10 -166 l3 -166
276 0 c296 0 301 1 360 54 59 52 77 145 39 203 -11 16 -103 111 -205 210 -104
101 -185 188 -185 198 0 22 35 57 57 57 9 0 87 -70 173 -155 86 -85 161 -155
168 -155 9 0 12 43 12 165 l0 165 -182 2 c-258 3 -310 3 -338 0z"/>
<path d="M2854 1220 c-29 -11 -37 -26 -36 -62 2 -67 80 -94 121 -42 27 35 26
59 -4 89 -25 26 -45 30 -81 15z m77 -26 c17 -21 14 -66 -7 -81 -44 -32 -97 -3
-92 51 5 49 67 68 99 30z"/>
<path d="M2861 1158 c1 -24 3 -35 6 -25 5 21 22 22 29 2 10 -26 21 -16 20 18
-1 35 -11 47 -38 47 -15 0 -18 -8 -17 -42z m33 11 c-3 -5 -10 -7 -15 -3 -5 3
-7 10 -3 15 3 5 10 7 15 3 5 -3 7 -10 3 -15z"/>
<path d="M40 1204 c0 -19 287 -704 300 -718 5 -5 65 -10 134 -11 l125 -2 30
67 30 68 -106 248 c-58 137 -115 274 -127 304 l-22 55 -182 3 c-163 2 -182 1
-182 -14z"/>
<path d="M1906 1168 c-13 -29 -25 -60 -28 -68 -2 -8 12 -55 33 -105 61 -147
196 -468 209 -497 l13 -28 179 0 c172 0 178 1 178 20 0 11 -29 89 -65 173 -36
83 -102 242 -148 352 l-84 200 -132 3 -132 3 -23 -53z"/>
<path d="M2379 1173 c-12 -26 -24 -57 -28 -68 -6 -13 6 -52 37 -125 24 -58 73
-175 108 -260 35 -85 74 -176 86 -202 l21 -48 178 0 c133 0 178 3 182 13 2 6
-9 44 -26 82 -16 39 -71 169 -122 290 -51 121 -106 252 -122 290 l-30 70 -132
3 -131 3 -21 -48z"/>
<path d="M1784 903 c-9 -21 -31 -74 -49 -118 -18 -44 -54 -129 -79 -188 -26
-59 -44 -112 -41 -118 9 -13 382 -12 390 1 4 6 -30 99 -75 208 -119 284 -117
282 -146 215z"/>
<path d="M336 321 c-8 -12 69 -82 128 -116 108 -64 309 -125 506 -155 74 -12
77 -11 205 28 347 106 892 183 1534 215 178 9 246 15 249 24 3 10 -263 13
-1307 13 -748 0 -1312 -4 -1315 -9z"/>
</g>
</svg>
